<svg xmlns="http://www.w3.org/2000/svg" viewBox="0 0 32 32"><defs><style>.cls-1{fill:#0077b5;}.cls-2{fill:#fff;fill-rule:evenodd;}</style></defs><title>linked-in</title><g id="Layer_2" data-name="Layer 2"><g id="universal_elements" data-name="universal elements"><g id="Shape"><circle class="cls-1" cx="16" cy="16" r="16"/></g><g id="Linked_IN_logo" data-name="Linked IN logo"><path class="cls-2" d="M9,22h3V12H9ZM20.69,11.65A4.5,4.5,0,0,0,17,13.36V12H14V22h3V16.57a2.38,2.38,0,0,1,2.36-2.26c1.31,0,1.64,1.12,1.64,2.24V22h3V16.32C24,12.38,22.14,11.65,20.69,11.65ZM10.5,11A1.5,1.5,0,1,0,9,9.5,1.5,1.5,0,0,0,10.5,11Z"/></g></g></g></svg>